# xmcd
#
# Track frame offsets: 
#        150
#        17758
#        43530
#        72080
#        91923
#        105038
#        125670
#        149140
#        188960
#        190955
#
# Disc length: 2801 seconds
#
# Revision: 0
# Processed by: cddbd v1.5.2PL0 Copyright (c) Steve Scherf et al.
# Submitted via: ExactAudioCopy v0.99pb5
#
DISCID=880aef0a
DTITLE=Hyperhead - Metaphasia
DYEAR=1992
DGENRE=Psychedelic Rock
TTITLE0=Making Waves
TTITLE1=Teenage Mind
TTITLE2=Terminal Fear
TTITLE3=Easy Slide
TTITLE4=Close To Hysteria
TTITLE5=Pre-emptive Counter Attack
TTITLE6=Ignition x 4
TTITLE7=Method One
TTITLE8=Teenage Mind (reprise)
TTITLE9=Trash
EXTD=
EXTT0=
EXTT1=
EXTT2=
EXTT3=
EXTT4=
EXTT5=
EXTT6=
EXTT7=
EXTT8=
EXTT9=
PLAYORDER=
